<mxfile host="app.diagrams.net" modified="2024-04-10T06:42:01.564Z" agent="Mozilla/5.0 (Windows NT 10.0; Win64; x64) AppleWebKit/537.36 (KHTML, like Gecko) Chrome/125.0.0.0 Safari/537.36 Edg/125.0.0.0" etag="J1tDCk_gZVwwucQ-LfEO" version="24.2.1" type="github">
  <diagram name="爬楼梯" id="fD_Jq7216U8BSLXhzzBP">
    <mxGraphModel dx="1554" dy="823" grid="0" gridSize="10" guides="1" tooltips="1" connect="1" arrows="1" fold="1" page="1" pageScale="1" pageWidth="827" pageHeight="1169" math="0" shadow="0">
      <root>
        <mxCell id="0" />
        <mxCell id="1" parent="0" />
        <mxCell id="Z7Z6oOYS8Z7AHmNsMTQJ-8" style="rounded=0;orthogonalLoop=1;jettySize=auto;html=1;exitX=0;exitY=1;exitDx=0;exitDy=0;entryX=1;entryY=0;entryDx=0;entryDy=0;" edge="1" parent="1" source="Z7Z6oOYS8Z7AHmNsMTQJ-1" target="Z7Z6oOYS8Z7AHmNsMTQJ-2">
          <mxGeometry relative="1" as="geometry" />
        </mxCell>
        <mxCell id="Z7Z6oOYS8Z7AHmNsMTQJ-9" style="rounded=0;orthogonalLoop=1;jettySize=auto;html=1;exitX=1;exitY=1;exitDx=0;exitDy=0;entryX=0;entryY=0;entryDx=0;entryDy=0;" edge="1" parent="1" source="Z7Z6oOYS8Z7AHmNsMTQJ-1" target="Z7Z6oOYS8Z7AHmNsMTQJ-3">
          <mxGeometry relative="1" as="geometry" />
        </mxCell>
        <mxCell id="Z7Z6oOYS8Z7AHmNsMTQJ-1" value="10" style="ellipse;whiteSpace=wrap;html=1;aspect=fixed;fontSize=16;fillColor=#dae8fc;strokeColor=#6c8ebf;" vertex="1" parent="1">
          <mxGeometry x="370" y="50" width="60" height="60" as="geometry" />
        </mxCell>
        <mxCell id="Z7Z6oOYS8Z7AHmNsMTQJ-2" value="8" style="ellipse;whiteSpace=wrap;html=1;aspect=fixed;fontSize=16;fillColor=#fff2cc;strokeColor=#d6b656;" vertex="1" parent="1">
          <mxGeometry x="270" y="130" width="60" height="60" as="geometry" />
        </mxCell>
        <mxCell id="Z7Z6oOYS8Z7AHmNsMTQJ-3" value="9" style="ellipse;whiteSpace=wrap;html=1;aspect=fixed;fontSize=16;fillColor=#d5e8d4;strokeColor=#82b366;" vertex="1" parent="1">
          <mxGeometry x="480" y="130" width="60" height="60" as="geometry" />
        </mxCell>
        <mxCell id="Z7Z6oOYS8Z7AHmNsMTQJ-4" value="7" style="ellipse;whiteSpace=wrap;html=1;aspect=fixed;fontSize=16;fillColor=#fff2cc;strokeColor=#d6b656;" vertex="1" parent="1">
          <mxGeometry x="420" y="210" width="60" height="60" as="geometry" />
        </mxCell>
        <mxCell id="Z7Z6oOYS8Z7AHmNsMTQJ-5" value="8" style="ellipse;whiteSpace=wrap;html=1;aspect=fixed;fontSize=16;fillColor=#fff2cc;strokeColor=#d6b656;" vertex="1" parent="1">
          <mxGeometry x="540" y="210" width="60" height="60" as="geometry" />
        </mxCell>
        <mxCell id="Z7Z6oOYS8Z7AHmNsMTQJ-6" value="6" style="ellipse;whiteSpace=wrap;html=1;aspect=fixed;fontSize=16;fillColor=#d5e8d4;strokeColor=#82b366;" vertex="1" parent="1">
          <mxGeometry x="210" y="210" width="60" height="60" as="geometry" />
        </mxCell>
        <mxCell id="Z7Z6oOYS8Z7AHmNsMTQJ-7" value="7" style="ellipse;whiteSpace=wrap;html=1;aspect=fixed;fontSize=16;fillColor=#fff2cc;strokeColor=#d6b656;" vertex="1" parent="1">
          <mxGeometry x="320" y="210" width="60" height="60" as="geometry" />
        </mxCell>
        <mxCell id="Z7Z6oOYS8Z7AHmNsMTQJ-10" style="rounded=0;orthogonalLoop=1;jettySize=auto;html=1;exitX=0;exitY=1;exitDx=0;exitDy=0;entryX=0.707;entryY=0.093;entryDx=0;entryDy=0;entryPerimeter=0;" edge="1" parent="1" source="Z7Z6oOYS8Z7AHmNsMTQJ-2" target="Z7Z6oOYS8Z7AHmNsMTQJ-6">
          <mxGeometry relative="1" as="geometry" />
        </mxCell>
        <mxCell id="Z7Z6oOYS8Z7AHmNsMTQJ-11" style="rounded=0;orthogonalLoop=1;jettySize=auto;html=1;exitX=1;exitY=1;exitDx=0;exitDy=0;entryX=0.287;entryY=0.027;entryDx=0;entryDy=0;entryPerimeter=0;" edge="1" parent="1" source="Z7Z6oOYS8Z7AHmNsMTQJ-2" target="Z7Z6oOYS8Z7AHmNsMTQJ-7">
          <mxGeometry relative="1" as="geometry" />
        </mxCell>
        <mxCell id="Z7Z6oOYS8Z7AHmNsMTQJ-12" style="rounded=0;orthogonalLoop=1;jettySize=auto;html=1;exitX=0;exitY=1;exitDx=0;exitDy=0;entryX=0.66;entryY=0.013;entryDx=0;entryDy=0;entryPerimeter=0;" edge="1" parent="1" source="Z7Z6oOYS8Z7AHmNsMTQJ-3" target="Z7Z6oOYS8Z7AHmNsMTQJ-4">
          <mxGeometry relative="1" as="geometry" />
        </mxCell>
        <mxCell id="Z7Z6oOYS8Z7AHmNsMTQJ-13" style="rounded=0;orthogonalLoop=1;jettySize=auto;html=1;exitX=1;exitY=1;exitDx=0;exitDy=0;entryX=0.247;entryY=0;entryDx=0;entryDy=0;entryPerimeter=0;" edge="1" parent="1" source="Z7Z6oOYS8Z7AHmNsMTQJ-3" target="Z7Z6oOYS8Z7AHmNsMTQJ-5">
          <mxGeometry relative="1" as="geometry" />
        </mxCell>
      </root>
    </mxGraphModel>
  </diagram>
</mxfile>
